<svg xmlns="http://www.w3.org/2000/svg" version="1.1" xmlns:xlink="http://www.w3.org/1999/xlink"
  xmlns:svgjs="http://svgjs.dev/svgjs" viewBox="0 0 1920 1080">
  <rect width="1920" height="1080" fill="#121361"></rect>
  <g
    transform="matrix(0.8131727983645296,0.8131727983645295,-0.8131727983645295,0.8131727983645296,617.2784552467897,-674.5841609444217)">
    <path
      d="M0,-1080C-1.9532194282904243,-944.6607926595827,-16.658854013868773,-558.7219884375497,-11.719316569742546,-267.9647559574961C-6.77977912561632,22.792476522557592,13.850814654225166,384.68024070440845,29.637224664757355,664.5433948803219C45.42363467528954,944.4065490562353,87.93868093757682,1161.9714015780382,82.99914349345059,1411.2141690979845C78.05960604932436,1660.4569366179308,13.833190582241764,2035.2023615163307,0,2160L 1920 2160 L 1920 -1080 Z"
      fill="url(&quot;#SvgjsLinearGradient1060&quot;)"></path>
    <path
      d="M320,-1080C334.8863835126042,-988.5572505442998,423.3188356537269,-729.1769140654776,409.3183010756253,-531.3435032657987C395.3177664975237,-333.5100924661199,238.24224990937978,-144.80440679521737,235.9967925313902,107.00046479807315C233.75133515340065,358.80533639136365,387.5875130015683,728.6435428595323,395.84555680768784,979.4857262939445C404.1036006138074,1230.3279097283566,298.1859815027221,1415.3011864535367,285.54505536810746,1612.053565404546C272.9041292334928,1808.805944355555,314.2575092280179,2068.675594234091,320,2160L 1920 2160 L 1920 -1080 Z"
      fill="url(&quot;#SvgjsLinearGradient1061&quot;)"></path>
    <path
      d="M640,-1080C655.0691165971066,-937.841470145217,744.1242375518169,-487.5345755724696,730.4146995826399,-227.04882087130193C716.7051616134628,33.43693382986572,578.3446891998283,206.43152562097578,557.7427721849378,482.91452820700596C537.1408551700474,759.3975307930361,593.0936595241201,1152.334949346047,606.8031974932971,1431.8491946448794C620.5127354624742,1711.3634399437117,634.4671995822162,2038.6415324408133,640,2160L 1920 2160 L 1920 -1080 Z"
      fill="url(&quot;#SvgjsLinearGradient1062&quot;)"></path>
    <path
      d="M960,-1080C963.9919195171103,-982.5158345871438,966.8330969102052,-655.6484799957643,983.9515171026616,-495.09500752286294C1001.0699372951179,-334.54153504996157,1056.4067901022906,-271.3471814864719,1062.710521154738,-116.67916516259149C1069.0142522071853,37.98885116128895,1055.2260068714652,249.20417695153375,1021.7739034173454,432.91309042041973C988.3217999632257,616.6220038893057,890.4435849618476,808.1731373894908,861.9979004300196,985.5743156507245C833.5522158981917,1162.9754939119584,834.7661129647144,1301.5825459296098,851.0997962263777,1497.3201599878223C867.4334794880411,1693.0577740460349,941.8499660377296,2049.5533599979703,960,2160L 1920 2160 L 1920 -1080 Z"
      fill="url(&quot;#SvgjsLinearGradient1063&quot;)"></path>
    <path
      d="M1280,-1080C1265.7345762487994,-926.483820976854,1201.9088870922742,-421.1277238068682,1194.4074574927965,-158.9029258611238C1186.9060278933189,103.32187208462054,1239.1995807450978,228.84229666042376,1234.9914224031343,493.34878767446605C1230.7832640611707,757.8552786885084,1161.657077841538,1150.3608181688744,1169.1585074410157,1428.1360202231301C1176.6599370404933,1705.9112222773858,1261.5264179068358,2038.0226700371884,1280,2160L 1920 2160 L 1920 -1080 Z"
      fill="url(&quot;#SvgjsLinearGradient1064&quot;)"></path>
    <path
      d="M1600,-1080C1597.426730568462,-985.2287134914711,1579.6505010755993,-709.1185744679624,1584.5603834107724,-511.37228094882664C1589.4702657459454,-313.6259874296909,1644.1645748721526,-121.9780422344175,1629.4592940110383,106.47776111481465C1614.754013149924,334.9335644640468,1497.0636280775554,633.7005101858579,1496.3286982440864,859.3625391465664C1495.5937684106173,1085.024568107275,1607.771164717572,1243.677024736827,1625.0497150102242,1460.449934879066C1642.3282653028764,1677.222845021305,1604.174952501704,2043.4083224798444,1600,2160L 1920 2160 L 1920 -1080 Z"
      fill="url(&quot;#SvgjsLinearGradient1065&quot;)"></path>
  </g>
  <defs>
    <linearGradient x1="0.1" y1="0" x2="0" y2="1" id="SvgjsLinearGradient1060">
      <stop stop-color="#121361" offset="0"></stop>
      <stop stop-color="#122061" offset="0"></stop>
    </linearGradient>
    <linearGradient x1="0.1" y1="0" x2="0" y2="1" id="SvgjsLinearGradient1061">
      <stop stop-color="#111159" offset="0"></stop>
      <stop stop-color="#111d59" offset="0.16666666666666666"></stop>
    </linearGradient>
    <linearGradient x1="0.1" y1="0" x2="0" y2="1" id="SvgjsLinearGradient1062">
      <stop stop-color="#0f1051" offset="0"></stop>
      <stop stop-color="#0f1b51" offset="0.3333333333333333"></stop>
    </linearGradient>
    <linearGradient x1="0.1" y1="0" x2="0" y2="1" id="SvgjsLinearGradient1063">
      <stop stop-color="#0e0e4a" offset="0"></stop>
      <stop stop-color="#0e184a" offset="0.5"></stop>
    </linearGradient>
    <linearGradient x1="0.1" y1="0" x2="0" y2="1" id="SvgjsLinearGradient1064">
      <stop stop-color="#0c0d42" offset="0"></stop>
      <stop stop-color="#0c1642" offset="0.6666666666666666"></stop>
    </linearGradient>
    <linearGradient x1="0.1" y1="0" x2="0" y2="1" id="SvgjsLinearGradient1065">
      <stop stop-color="#0b0b3a" offset="0"></stop>
      <stop stop-color="#0b133a" offset="0.8333333333333334"></stop>
    </linearGradient>
  </defs>
</svg>